<svg xmlns="http://www.w3.org/2000/svg" width="50" height="50" fill="none"><g fill="#fff" clip-path="url(#a)"><path d="m13.8 38.254 10.729 7.316c.294.199.68.199.973 0l10.733-7.316c3.013-2.054 5.472-6.69 5.472-10.335v-15.35a.868.868 0 0 0-.488-.773l-15.82-7.769a.864.864 0 0 0-.76 0L8.82 11.772a.867.867 0 0 0-.49.774v15.373c0 3.644 2.457 8.28 5.47 10.335Zm-3.75-25.171L25.017 5.76l14.968 7.346v14.813c0 3.036-2.209 7.2-4.72 8.912l-10.243 6.984-10.25-6.984c-2.51-1.712-4.72-5.876-4.72-8.912V13.083Z"/><path d="m11.797 41.176 12.726 8.674c.295.2.682.2.977 0l12.734-8.674c3.93-2.68 7.025-8.503 7.025-13.257V10.366a.876.876 0 0 0-.497-.774L25.404.088a.87.87 0 0 0-.763 0L5.273 9.566a.876.876 0 0 0-.5.774v17.579c0 4.754 3.094 10.578 7.024 13.257Zm-5.3-30.3 18.52-9.055 18.52 9.081v17.017c0 4.243-2.764 9.442-6.273 11.834l-12.24 8.343-12.253-8.343c-3.508-2.392-6.275-7.59-6.275-11.834V10.877Z"/><path d="M21.984 32.935c.162.161.382.25.61.248h.003a.856.856 0 0 0 .609-.245l12.238-12.235a.857.857 0 0 0 0-1.216l-2.436-2.435a.861.861 0 0 0-1.218 0l-9.178 9.178-4.346-4.388a.861.861 0 0 0-1.219-.006L14.6 24.26a.854.854 0 0 0-.006 1.215l7.391 7.46Zm-4.336-9.268 4.349 4.403c.16.166.379.263.61.267h.002c.23-.004.448-.1.608-.264l9.182-9.187 1.218 1.215L22.6 31.117l-6.176-6.237 1.224-1.213Z"/></g><defs><clipPath id="a"><path fill="#fff" d="M0 0h50v50H0z"/></clipPath></defs></svg>