<svg xmlns="http://www.w3.org/2000/svg" width="50" height="50" fill="none"><g fill="#fff" clip-path="url(#a)"><path d="M36.327 21.645v-9.463c0-.27-.125-.52-.302-.719L25.415.323a1.057 1.057 0 0 0-.76-.323H7.835C4.73 0 2.25 2.532 2.25 5.638v31.805a5.568 5.568 0 0 0 5.585 5.596h13.277C23.623 47.207 28.188 50 33.388 50c7.899 0 14.35-6.42 14.35-14.329.01-6.909-4.95-12.682-11.411-14.026ZM25.697 3.658l7.118 7.492h-4.617a2.517 2.517 0 0 1-2.5-2.51V3.657ZM7.835 40.955a3.491 3.491 0 0 1-3.5-3.512V5.638c0-1.96 1.552-3.554 3.5-3.554h15.778V8.64a4.594 4.594 0 0 0 4.585 4.596h6.044v8.138c-.312-.01-.562-.041-.833-.041-3.637 0-6.982 1.396-9.504 3.585H10.67c-.573 0-1.042.469-1.042 1.042 0 .573.469 1.042 1.042 1.042h11.297c-.74 1.042-1.355 2.084-1.834 3.23H10.67c-.573 0-1.042.47-1.042 1.043s.469 1.042 1.042 1.042h8.785a14.03 14.03 0 0 0-.396 3.355c0 1.876.365 3.731 1.021 5.294H7.835v-.01Zm25.563 6.971c-6.752 0-12.244-5.492-12.244-12.245 0-6.752 5.481-12.244 12.244-12.244 6.764 0 12.245 5.492 12.245 12.244 0 6.753-5.492 12.245-12.245 12.245Z"/><path d="M10.667 21.78h10.557c.573 0 1.042-.47 1.042-1.042 0-.573-.47-1.042-1.042-1.042H10.667c-.573 0-1.042.469-1.042 1.042 0 .573.469 1.042 1.042 1.042ZM39.064 30.992l-7.879 7.211-3.855-4.19a1.04 1.04 0 1 0-1.532 1.408l4.564 4.95c.208.219.49.334.771.334.25 0 .5-.094.709-.272l8.639-7.92a1.03 1.03 0 0 0 .063-1.469 1.05 1.05 0 0 0-1.48-.052Z"/></g><defs><clipPath id="a"><path fill="#fff" d="M0 0h50v50H0z"/></clipPath></defs></svg>