<svg xmlns="http://www.w3.org/2000/svg" width="47" height="47" fill="none"><g fill="#fff" clip-path="url(#a)"><path d="M47 27.906a4.351 4.351 0 0 0-1.275-3.082c.915-1.001 1.38-2.343 1.253-3.739-.229-2.489-2.471-4.44-5.107-4.44H29.774c.6-1.819 1.56-5.154 1.56-7.833 0-4.247-3.61-7.833-5.876-7.833-2.032 0-3.487 1.146-3.548 1.193a.98.98 0 0 0-.368.765v6.641L15.9 21.796l-.233.12v-.375a.98.98 0 0 0-.98-.979H4.896A4.9 4.9 0 0 0 0 25.458v15.667a4.9 4.9 0 0 0 4.896 4.896h5.875a4.907 4.907 0 0 0 4.608-3.238c1.63.839 3.822 1.28 5.184 1.28h17.975c2.133 0 3.999-1.438 4.438-3.42a4.42 4.42 0 0 0-.353-2.943 4.388 4.388 0 0 0 1.96-5.875A4.388 4.388 0 0 0 47 27.906Zm-4.13 2.417a.984.984 0 0 0-.819.663c-.12.363-.02.76.259 1.023.497.468.773 1.098.773 1.772a2.44 2.44 0 0 1-2.17 2.417.984.984 0 0 0-.818.663c-.12.363-.02.76.258 1.023.645.607.903 1.459.71 2.336-.241 1.093-1.303 1.884-2.525 1.884H20.563c-1.59 0-4.258-.746-5.182-1.672a.98.98 0 0 0-1.673.693 2.941 2.941 0 0 1-2.937 2.937H4.896a2.941 2.941 0 0 1-2.938-2.937V25.458a2.941 2.941 0 0 1 2.938-2.937h8.812v.979c0 .339.177.654.466.834a1 1 0 0 0 .952.041l1.958-.979a.978.978 0 0 0 .45-.464l5.876-12.73c.059-.129.09-.27.09-.41V3.467c.407-.225 1.114-.53 1.958-.53 1.074 0 3.917 2.667 3.917 5.874 0 3.447-1.876 8.415-1.894 8.464a.986.986 0 0 0 .108.905.985.985 0 0 0 .807.423H41.87c1.633 0 3.02 1.17 3.157 2.661a2.926 2.926 0 0 1-1.394 2.771.983.983 0 0 0 .067 1.706 2.424 2.424 0 0 1 1.34 2.164 2.44 2.44 0 0 1-2.171 2.417Z"/><path d="M14.69 22.521a.98.98 0 0 0-.98.98v17.624a.98.98 0 0 0 1.96 0V23.5a.98.98 0 0 0-.98-.979Z"/></g><defs><clipPath id="a"><path fill="#fff" d="M0 0h47v47H0z"/></clipPath></defs></svg>