<svg xmlns="http://www.w3.org/2000/svg" width="50" height="50" fill="none"><g fill="#fff" clip-path="url(#a)"><path d="M49.111 9.456a3.73 3.73 0 0 0-2.554-1.317l-35.21-2.94a3.73 3.73 0 0 0-2.739.875 3.73 3.73 0 0 0-1.316 2.543l-.708 6.646H3.755A3.76 3.76 0 0 0 0 19.018V41.06a3.76 3.76 0 0 0 3.755 3.756H39.09a3.76 3.76 0 0 0 3.755-3.756v-3.575l1.254.104a3.76 3.76 0 0 0 4.055-3.43l1.834-21.964c.083-1-.228-1.972-.876-2.738Zm-45.356 7.76H39.09c.993 0 1.802.808 1.802 1.802v2.008H1.953v-2.008c0-.994.809-1.802 1.802-1.802ZM1.953 22.98h38.938v4.051H1.953V22.98ZM39.09 42.86H3.755a1.804 1.804 0 0 1-1.802-1.802V28.984h38.938V41.06c0 .994-.809 1.802-1.802 1.802Zm8.951-30.83-1.834 21.965a1.804 1.804 0 0 1-1.946 1.646l-1.416-.118V19.018a3.76 3.76 0 0 0-3.755-3.755H8.549l.687-6.45.002-.022a1.804 1.804 0 0 1 1.946-1.646l35.21 2.94c.48.04.916.265 1.226.632.311.368.46.835.42 1.314Z"/><path d="M36.805 31.888h-9.399a.977.977 0 0 0-.976.976v6.132c0 .54.437.977.976.977h9.399c.54 0 .976-.438.976-.977v-6.132a.977.977 0 0 0-.976-.976Zm-.977 6.131h-7.445v-4.178h7.445v4.178Z"/></g><defs><clipPath id="a"><path fill="#fff" d="M0 0h50v50H0z"/></clipPath></defs></svg>