<svg xmlns="http://www.w3.org/2000/svg" width="63" height="63" fill="none"><g fill="#fff" clip-path="url(#a)"><path d="M54.088 48.94a5.397 5.397 0 1 1-.008-10.793 5.397 5.397 0 0 1 .008 10.794Zm0-8.825a3.43 3.43 0 1 0-.007 6.859 3.43 3.43 0 0 0 .007-6.859ZM25.652 48.94a5.397 5.397 0 1 1-.01-10.794 5.397 5.397 0 0 1 .01 10.794Zm0-8.825a3.429 3.429 0 1 0-.01 6.858 3.429 3.429 0 0 0 .01-6.858Z"/><path d="M61.188 44.528h-2.692a.984.984 0 0 1 0-1.969h2.414v-5.22c0-.706-.181-1.4-.525-2.016l-5.329-9.553a.526.526 0 0 0-.458-.27h-7.262v17.063h2.344a.984.984 0 0 1 0 1.969h-3.328a.984.984 0 0 1-.985-.985v-19.03a.984.984 0 0 1 .985-.985h8.246a2.494 2.494 0 0 1 2.179 1.278l5.327 9.555c.507.91.773 1.933.773 2.974v5.5a1.692 1.692 0 0 1-1.689 1.689ZM21.243 44.528h-9.438a.984.984 0 0 1-.985-.984v-7.57a.984.984 0 0 1 1.97 0v6.585h8.453a.984.984 0 0 1 0 1.969ZM11.805 32.48a.984.984 0 0 1-.985-.984v-6.61a.984.984 0 0 1 1.97 0V31.5a.984.984 0 0 1-.985.98Z"/><path d="M46.356 44.528H30.06a.984.984 0 0 1 0-1.969h15.313V16.807H12.789v4.054a.984.984 0 0 1-1.969 0v-4.236a1.79 1.79 0 0 1 1.79-1.787h32.943a1.79 1.79 0 0 1 1.788 1.787v26.919a.984.984 0 0 1-.985.984ZM15.697 36.958H3.203a.984.984 0 1 1 0-1.97h12.494a.984.984 0 1 1 0 1.97Z"/><path d="M25.653 32.48H8.219a.984.984 0 0 1 0-1.968h17.434a.984.984 0 1 1 0 1.968ZM7.675 27.283H.867a.984.984 0 1 1 0-1.969h6.808a.984.984 0 1 1 0 1.969ZM18.588 21.845H6.57a.984.984 0 1 1 0-1.968h12.018a.984.984 0 0 1 0 1.968Z"/></g><defs><clipPath id="a"><path fill="#fff" d="M0 0h63v63H0z"/></clipPath></defs></svg>