<svg xmlns="http://www.w3.org/2000/svg" width="46" height="46" fill="none"><g fill="#fff" clip-path="url(#a)"><path d="M31.622 19.167h-17.25a.959.959 0 0 1-.958-.959V.958c0-.529.43-.958.958-.958h17.25c.53 0 .959.43.959.958v17.25c0 .53-.43.959-.959.959ZM15.331 17.25h15.333V1.917H15.331V17.25Z"/><path d="M25.872 7.667h-5.75a.959.959 0 0 1-.958-.959V.958c0-.529.43-.958.958-.958h5.75c.53 0 .959.43.959.958v5.75c0 .53-.43.959-.959.959ZM21.081 5.75h3.833V1.917h-3.833V5.75ZM23.003 36.417H4.794a.959.959 0 0 1-.958-.959v-17.25c0-.529.43-.958.958-.958h18.209c.529 0 .958.43.958.958v17.25c0 .53-.43.959-.958.959ZM5.753 34.5h16.291V19.167H5.753V34.5Z"/><path d="M16.294 24.917h-5.75a.959.959 0 0 1-.958-.959v-5.75c0-.529.43-.958.958-.958h5.75c.53 0 .959.43.959.958v5.75c0 .53-.43.959-.959.959ZM11.503 23h3.833v-3.833h-3.833V23ZM41.206 36.417H22.997a.959.959 0 0 1-.958-.959v-17.25c0-.529.43-.958.958-.958h18.209c.529 0 .958.43.958.958v17.25c0 .53-.43.959-.958.959ZM23.956 34.5h16.291V19.167H23.956V34.5Z"/><path d="M35.458 24.917h-5.75a.959.959 0 0 1-.958-.959v-5.75c0-.529.43-.958.958-.958h5.75c.53 0 .959.43.959.958v5.75c0 .53-.43.959-.959.959ZM30.667 23H34.5v-3.833h-3.833V23ZM45.042 46h-7.667a.959.959 0 0 1-.958-.958v-2.875H28.75v2.875c0 .529-.43.958-.958.958h-9.584a.959.959 0 0 1-.958-.958v-2.875H9.583v2.875c0 .529-.429.958-.958.958H.958A.959.959 0 0 1 0 45.042v-9.584c0-.529.43-.958.958-.958h44.084c.529 0 .958.43.958.958v9.584c0 .529-.43.958-.958.958Zm-6.709-1.917h5.75v-7.666H1.917v7.666h5.75v-2.875c0-.529.429-.958.958-.958h9.583c.53 0 .959.43.959.958v2.875h7.666v-2.875c0-.529.43-.958.959-.958h9.583c.529 0 .958.43.958.958v2.875Z"/></g><defs><clipPath id="a"><path fill="#fff" d="M0 0h46v46H0z"/></clipPath></defs></svg>