<svg aria-hidden="true" style="position: absolute; width: 0; height: 0; overflow: hidden;" version="1.1" xmlns="http://www.w3.org/2000/svg" xmlns:xlink="http://www.w3.org/1999/xlink">
<defs>
<symbol id="icon-check-mark-1" viewBox="0 0 32 32">
<path d="M8.832 24.483l6.867 4.682c0.188 0.127 0.435 0.127 0.623 0l6.869-4.682c1.928-1.315 3.502-4.282 3.502-6.614v-9.824c-0.002-0.216-0.127-0.403-0.309-0.493l-0.003-0.001-10.125-4.972c-0.071-0.036-0.155-0.056-0.243-0.056s-0.172 0.021-0.246 0.058l0.003-0.001-10.124 4.957c-0.186 0.091-0.312 0.278-0.314 0.495v9.839c0 2.332 1.572 5.299 3.501 6.614zM6.432 8.373l9.579-4.687 9.58 4.701v9.48c0 1.943-1.414 4.608-3.021 5.704l-6.556 4.47-6.56-4.47c-1.606-1.096-3.021-3.761-3.021-5.704v-9.495z"></path>
<path d="M7.55 26.353l8.145 5.551c0.189 0.128 0.436 0.128 0.625 0l8.15-5.551c2.515-1.715 4.496-5.442 4.496-8.484v-11.234c-0.004-0.217-0.131-0.404-0.315-0.494l-0.003-0.001-12.389-6.083c-0.071-0.036-0.155-0.056-0.244-0.056s-0.173 0.021-0.247 0.058l0.003-0.001-12.396 6.066c-0.188 0.091-0.316 0.277-0.32 0.495v11.251c0 3.043 1.98 6.77 4.495 8.484zM4.158 6.961l11.853-5.795 11.853 5.812v10.891c0 2.716-1.769 6.043-4.015 7.574l-7.834 5.34-7.842-5.34c-2.245-1.531-4.016-4.858-4.016-7.574v-10.907z"></path>
<path d="M14.070 21.078c0.104 0.103 0.244 0.16 0.39 0.159h0.002c0.002 0 0.004 0 0.006 0 0.149 0 0.285-0.060 0.384-0.157l7.832-7.83c0.1-0.099 0.162-0.237 0.162-0.389s-0.062-0.29-0.162-0.389l-1.559-1.558c-0.1-0.1-0.238-0.162-0.39-0.162s-0.29 0.062-0.39 0.162l-5.874 5.874-2.781-2.808c-0.1-0.101-0.239-0.164-0.392-0.164-0.151 0-0.289 0.061-0.388 0.16l-1.566 1.551c-0.101 0.099-0.164 0.238-0.164 0.391 0 0.151 0.061 0.288 0.161 0.387v0l4.73 4.774zM11.295 15.147l2.783 2.818c0.102 0.106 0.243 0.168 0.39 0.171h0.001c0.147-0.003 0.287-0.064 0.389-0.169l5.876-5.88 0.78 0.778-7.051 7.050-3.953-3.992 0.783-0.776z"></path>
</symbol>
<symbol id="icon-credit-card-1" viewBox="0 0 32 32">
<path d="M31.431 6.052c-0.4-0.474-0.976-0.788-1.626-0.842l-0.009-0.001-22.534-1.882c-0.062-0.006-0.134-0.009-0.206-0.009-0.592 0-1.133 0.215-1.55 0.572l0.003-0.003c-0.472 0.399-0.786 0.972-0.842 1.619l-0.001 0.009-0.453 4.253h-1.811c-1.327 0.002-2.401 1.077-2.403 2.403v14.107c0.001 1.327 1.076 2.402 2.403 2.404h22.615c1.327-0.002 2.402-1.077 2.403-2.404v-2.288l0.803 0.067c0.059 0.005 0.128 0.008 0.197 0.008 1.258 0 2.29-0.965 2.397-2.194l0.001-0.009 1.174-14.057c0.053-0.64-0.146-1.262-0.561-1.752zM2.403 11.018h22.614c0.636 0 1.153 0.517 1.153 1.153v1.285h-24.921v-1.285c0-0.636 0.518-1.153 1.153-1.153zM1.25 14.707h24.92v2.593h-24.92v-2.593zM25.018 27.43h-22.614c-0.637-0.001-1.153-0.517-1.153-1.153v-7.727h24.92v7.729c0 0.636-0.518 1.153-1.153 1.153zM30.746 7.699l-1.174 14.058c-0.052 0.594-0.547 1.057-1.15 1.057-0.033 0-0.067-0.001-0.099-0.004l0.004 0-0.906-0.076v-10.563c-0.002-1.327-1.077-2.401-2.403-2.403h-19.546l0.44-4.128 0.001-0.014c0.052-0.594 0.547-1.057 1.15-1.057 0.033 0 0.067 0.001 0.099 0.004l-0.004-0 22.534 1.882c0.307 0.026 0.586 0.17 0.785 0.404s0.294 0.534 0.269 0.841z"></path>
<path d="M23.555 20.408h-6.015c-0.345 0-0.624 0.28-0.625 0.625v3.924c0 0.346 0.28 0.625 0.625 0.625h6.015c0.346 0 0.625-0.28 0.625-0.625v-3.924c-0-0.345-0.28-0.624-0.625-0.625h-0zM22.93 24.332h-4.765v-2.674h4.765v2.674z"></path>
</symbol>
<symbol id="icon-delivery-truck-1" viewBox="0 0 32 32">
<path d="M27.473 24.858c-0.012 0-0.025 0-0.039 0-1.514 0-2.741-1.227-2.741-2.741s1.227-2.741 2.741-2.741c0.012 0 0.025 0 0.037 0l-0.002-0c0.001 0 0.001 0 0.002 0 1.514 0 2.741 1.227 2.741 2.741s-1.226 2.74-2.739 2.741h-0zM27.473 20.376c-0.009-0-0.020-0-0.031-0-0.962 0-1.742 0.78-1.742 1.742s0.78 1.742 1.742 1.742c0.010 0 0.020-0 0.029-0l-0.001 0c0.95-0.016 1.714-0.79 1.714-1.742 0-0.951-0.762-1.724-1.709-1.742l-0.002-0zM13.030 24.858c-0.001 0-0.002 0-0.003 0-1.514 0-2.741-1.227-2.741-2.741s1.226-2.74 2.739-2.741h0c0.001 0 0.002 0 0.003 0 1.514 0 2.741 1.227 2.741 2.741s-1.226 2.74-2.739 2.741h-0zM13.030 20.376c-0.001 0-0.002 0-0.003 0-0.962 0-1.742 0.78-1.742 1.742s0.778 1.74 1.739 1.742h0c0.001 0 0.002 0 0.003 0 0.962 0 1.742-0.78 1.742-1.742s-0.778-1.74-1.739-1.742h-0z"></path>
<path d="M31.080 22.617h-1.367c-0.276 0-0.5-0.224-0.5-0.5s0.224-0.5 0.5-0.5v0h1.226v-2.651c0-0.359-0.092-0.711-0.267-1.024l-2.707-4.852c-0.046-0.082-0.133-0.137-0.233-0.137h-3.689v8.667h1.191c0.276 0 0.5 0.224 0.5 0.5s-0.224 0.5-0.5 0.5v0h-1.69c-0 0-0 0-0 0-0.276 0-0.5-0.224-0.5-0.5 0-0 0-0 0-0.001v0-9.666c0-0 0-0 0-0.001 0-0.276 0.224-0.5 0.5-0.5 0 0 0 0 0.001 0h4.188c0 0 0 0 0.001 0 0.473 0 0.885 0.259 1.103 0.643l0.003 0.006 2.706 4.853c0.258 0.462 0.393 0.982 0.393 1.511v2.794c-0.001 0.473-0.384 0.857-0.858 0.858h-0zM10.79 22.617h-4.794c-0 0-0 0-0 0-0.276 0-0.5-0.224-0.5-0.5 0 0 0 0 0 0v0-3.845c0-0.276 0.224-0.5 0.5-0.5s0.5 0.224 0.5 0.5v0 3.345h4.294c0.276 0 0.5 0.224 0.5 0.5s-0.224 0.5-0.5 0.5v0zM5.996 16.498c-0 0-0 0-0 0-0.276 0-0.5-0.224-0.5-0.5 0 0 0 0 0 0v0-3.357c0-0.276 0.224-0.5 0.5-0.5s0.5 0.224 0.5 0.5v0 3.36c-0.001 0.275-0.224 0.498-0.5 0.498-0 0-0 0-0.001 0h0z"></path>
<path d="M23.546 22.617h-8.277c-0.276 0-0.5-0.224-0.5-0.5s0.224-0.5 0.5-0.5v0h7.778v-13.080h-16.551v2.059c0 0.276-0.224 0.5-0.5 0.5s-0.5-0.224-0.5-0.5v0-2.152c0.001-0.502 0.408-0.908 0.909-0.908 0 0 0 0 0 0h16.733c0.501 0.001 0.907 0.407 0.908 0.908v13.673c0 0.276-0.224 0.5-0.5 0.5-0 0-0 0-0.001 0h0zM7.973 18.772h-6.346c-0.276 0-0.5-0.224-0.5-0.5s0.224-0.5 0.5-0.5h6.346c0.276 0 0.5 0.224 0.5 0.5s-0.224 0.5-0.5 0.5v0z"></path>
<path d="M13.030 16.498h-8.855c-0.276 0-0.5-0.224-0.5-0.5s0.224-0.5 0.5-0.5v0h8.855c0.276 0 0.5 0.224 0.5 0.5s-0.224 0.5-0.5 0.5v0zM3.898 13.858h-3.458c-0.276 0-0.5-0.224-0.5-0.5s0.224-0.5 0.5-0.5v0h3.458c0.276 0 0.5 0.224 0.5 0.5s-0.224 0.5-0.5 0.5v0zM9.442 11.096h-6.104c-0.276 0-0.5-0.224-0.5-0.5s0.224-0.5 0.5-0.5v0h6.104c0.276 0 0.5 0.224 0.5 0.5s-0.224 0.5-0.5 0.5v0z"></path>
</symbol>
<symbol id="icon-file-1" viewBox="0 0 32 32">
<path d="M23.249 13.853v-6.056c0-0.173-0.080-0.333-0.193-0.46l-6.79-7.13c-0.123-0.127-0.296-0.207-0.486-0.207h-10.765c-1.987 0-3.574 1.62-3.574 3.608v20.355c-0 0.005-0 0.012-0 0.018 0 1.968 1.595 3.564 3.564 3.564 0.004 0 0.008 0 0.012-0h8.497c1.607 2.668 4.529 4.455 7.857 4.455 5.055 0 9.184-4.109 9.184-9.171 0.006-4.422-3.168-8.116-7.303-8.977zM16.446 2.341l4.556 4.795h-2.955c-0.883-0.006-1.597-0.722-1.6-1.606v-3.189zM5.014 26.211c-0.002 0-0.004 0-0.006 0-1.234 0-2.234-1-2.234-2.234 0-0.005 0-0.009 0-0.014v0.001-20.355c0-1.254 0.993-2.275 2.24-2.275h10.098v4.196c0 0 0 0.001 0 0.001 0 1.622 1.313 2.937 2.934 2.94h3.868v5.208c-0.2-0.006-0.36-0.026-0.533-0.026-2.328 0-4.468 0.893-6.083 2.294h-8.47c-0.367 0-0.667 0.3-0.667 0.667s0.3 0.667 0.667 0.667h7.23c-0.474 0.667-0.867 1.334-1.174 2.067h-6.056c-0.367 0-0.667 0.301-0.667 0.668s0.3 0.667 0.667 0.667h5.622c-0.161 0.636-0.254 1.367-0.254 2.118 0 0.010 0 0.020 0 0.030v-0.002c0 1.201 0.234 2.388 0.653 3.388l-7.837-0.006zM21.375 30.673c-4.321 0-7.836-3.515-7.836-7.837s3.508-7.836 7.836-7.836c4.329 0 7.837 3.515 7.837 7.836s-3.515 7.837-7.837 7.837z"></path>
<path d="M6.827 13.939h6.756c0.367 0 0.667-0.301 0.667-0.667s-0.301-0.667-0.667-0.667h-6.756c-0.367 0-0.667 0.3-0.667 0.667s0.3 0.667 0.667 0.667zM25.001 19.835l-5.043 4.615-2.467-2.682c-0.122-0.133-0.296-0.215-0.49-0.215-0.368 0-0.666 0.298-0.666 0.666 0 0.174 0.067 0.332 0.176 0.451l-0-0 2.921 3.168c0.133 0.14 0.314 0.214 0.493 0.214 0.16 0 0.32-0.060 0.454-0.174l5.529-5.069c0.134-0.121 0.218-0.296 0.218-0.49 0-0.174-0.068-0.333-0.178-0.451l0 0c-0.123-0.131-0.297-0.212-0.49-0.212-0.177 0-0.337 0.068-0.457 0.18l0-0z"></path>
</symbol>
<symbol id="icon-like-1" viewBox="0 0 32 32">
<path d="M32 19c0-0.001 0-0.002 0-0.003 0-0.818-0.332-1.559-0.868-2.095v0c0.623-0.682 0.94-1.595 0.853-2.546-0.156-1.695-1.682-3.023-3.477-3.023h-8.236c0.409-1.238 1.062-3.509 1.062-5.333 0-2.892-2.458-5.333-4.001-5.333-1.383 0-2.374 0.78-2.416 0.812-0.153 0.123-0.25 0.311-0.251 0.521v4.522l-3.841 8.319-0.159 0.082v-0.255c-0-0.368-0.299-0.667-0.667-0.667 0 0 0 0 0 0h-6.666c-1.84 0.002-3.332 1.493-3.333 3.333v10.667c0.002 1.84 1.493 3.332 3.333 3.333h4c1.436-0.002 2.659-0.909 3.13-2.181l0.008-0.023c1.11 0.571 2.602 0.872 3.53 0.872h12.238c1.452 0 2.723-0.979 3.022-2.328 0.047-0.2 0.074-0.429 0.074-0.664 0-0.488-0.116-0.949-0.322-1.357l0.008 0.017c0.984-0.502 1.647-1.509 1.647-2.67 0-0.485-0.115-0.942-0.32-1.347l0.008 0.017c0.983-0.502 1.645-1.508 1.646-2.668v-0zM29.188 20.645c-0.261 0.031-0.474 0.208-0.556 0.447l-0.001 0.005c-0.082 0.247-0.014 0.517 0.176 0.697 0.338 0.319 0.526 0.748 0.526 1.206-0.003 0.85-0.644 1.55-1.47 1.645l-0.008 0.001c-0.261 0.031-0.473 0.209-0.556 0.447l-0.001 0.005c-0.082 0.247-0.014 0.517 0.176 0.697 0.439 0.413 0.615 0.993 0.483 1.59-0.164 0.744-0.887 1.283-1.719 1.283h-12.238c-1.083 0-2.899-0.508-3.528-1.138-0.121-0.121-0.288-0.195-0.472-0.195-0.368 0-0.667 0.299-0.667 0.667 0 0 0 0 0 0v0c-0.002 1.104-0.896 1.998-2 2h-4c-1.104-0.001-1.999-0.896-2-2v-10.667c0.002-1.104 0.896-1.998 2-2h6v0.667c0 0.231 0.12 0.445 0.317 0.568 0.1 0.061 0.221 0.097 0.35 0.097 0.109 0 0.211-0.025 0.302-0.071l-0.004 0.002 1.333-0.667c0.135-0.069 0.242-0.178 0.305-0.312l0.002-0.004 4.001-8.667c0.040-0.088 0.061-0.184 0.061-0.279v-4.306c0.277-0.153 0.758-0.361 1.333-0.361 0.731 0 2.667 1.816 2.667 3.999 0 2.347-1.277 5.729-1.29 5.763-0.027 0.071-0.043 0.152-0.043 0.238 0 0.141 0.044 0.273 0.118 0.381l-0.001-0.002c0.122 0.175 0.323 0.288 0.549 0.288h9.174c1.112 0 2.056 0.797 2.149 1.812 0.005 0.055 0.009 0.119 0.009 0.184 0 0.718-0.38 1.347-0.949 1.698l-0.009 0.005c-0.19 0.12-0.315 0.329-0.315 0.568 0 0.257 0.145 0.48 0.357 0.592l0.004 0.002c0.544 0.277 0.911 0.832 0.912 1.473v0c-0.003 0.851-0.645 1.55-1.47 1.645l-0.008 0.001z"></path>
<path d="M10.002 15.333c-0.368 0-0.667 0.299-0.667 0.667v0 11.999c0 0.369 0.299 0.667 0.667 0.667s0.667-0.299 0.667-0.667v0-12c-0-0.368-0.299-0.667-0.667-0.667 0 0 0 0 0 0v0z"></path>
</symbol>
<symbol id="icon-magnifying-glass-1" viewBox="0 0 32 32">
<path d="M18.225 8.737c-0.382-0.382-0.909-0.618-1.491-0.618s-1.11 0.236-1.491 0.618l-3.435 3.435-0.858-0.858c-0.381-0.381-0.907-0.617-1.488-0.617s-1.107 0.236-1.488 0.617l-0 0c-0.38 0.381-0.615 0.907-0.615 1.488s0.235 1.107 0.615 1.488l3.436 3.437c0.25 0.25 0.644 0.243 0.887-0.003l5.937-6.016c0.375-0.381 0.606-0.905 0.606-1.482 0-0.582-0.235-1.109-0.616-1.491l0 0zM17.345 10.832l-5.495 5.566-2.992-2.991c-0.155-0.155-0.25-0.368-0.25-0.604 0-0.472 0.382-0.854 0.854-0.854 0.236 0 0.449 0.096 0.604 0.25l1.3 1.299c0.244 0.244 0.64 0.244 0.884 0l3.877-3.877c0.156-0.157 0.371-0.253 0.609-0.253 0.474 0 0.859 0.384 0.859 0.859 0 0.236-0.095 0.45-0.25 0.605l0-0z"></path>
<path d="M28.193 23.405l-6.122-5.249c0.86-1.476 1.367-3.248 1.367-5.139 0-2.855-1.157-5.439-3.027-7.311l0 0c-4.040-4.040-10.577-4.040-14.618 0-4.039 4.040-4.040 10.578 0 14.618 3.383 3.383 8.474 3.907 12.39 1.692l5.041 6.22c1.297 1.6 3.698 1.734 5.163 0.27 0.629-0.63 1.018-1.499 1.018-2.46 0-1.054-0.469-1.999-1.209-2.638l-0.005-0.004zM6.677 19.44c-3.551-3.551-3.551-9.299 0-12.85s9.299-3.551 12.851 0c4.045 4.046 3.405 10.924-1.536 14.086h-0.001c-3.471 2.22-8.201 1.877-11.313-1.236zM27.504 27.622c-0.403 0.403-0.961 0.653-1.576 0.653-0.697 0-1.32-0.32-1.728-0.822l-0.003-0.004-4.957-6.116c0.819-0.611 1.524-1.311 2.12-2.098l0.019-0.026 6 5.145c0.478 0.411 0.779 1.016 0.779 1.692 0 0.616-0.25 1.173-0.654 1.576l-0 0z"></path>
</symbol>
<symbol id="icon-speech-bubble-1" viewBox="0 0 32 32">
<path d="M16 7.875c-0.345 0-0.625 0.28-0.625 0.625s0.28 0.625 0.625 0.625v0c0.345 0 0.625-0.28 0.625-0.625s-0.28-0.625-0.625-0.625v0zM5.626 19.125c0.345-0 0.625-0.28 0.625-0.625s-0.28-0.625-0.625-0.625c-0 0-0 0-0.001 0h0c-0.345 0-0.625 0.28-0.625 0.625s0.28 0.625 0.625 0.625c0 0 0 0 0 0h-0z"></path>
<path d="M21 1.626c-5.627 0-10.245 3.878-10.602 8.765-5.359 0.269-10.398 4.132-10.398 9.359 0 2.184 0.864 4.301 2.438 5.978 0.068 0.269 0.107 0.577 0.107 0.895 0 1.049-0.425 1.998-1.112 2.686l0-0c-0.113 0.113-0.183 0.269-0.183 0.442 0 0.345 0.279 0.625 0.624 0.625h0c1.783 0 3.501-0.699 4.777-1.931 1.244 0.424 2.866 0.681 4.348 0.681 5.626 0 10.244-3.878 10.602-8.764 1.308-0.058 2.669-0.3 3.747-0.667 1.236 1.193 2.92 1.928 4.776 1.931h0c0.345-0.001 0.624-0.28 0.624-0.625 0-0.172-0.070-0.328-0.183-0.442v0c-0.687-0.688-1.111-1.637-1.111-2.686 0-0.318 0.039-0.626 0.112-0.921l-0.006 0.026c1.574-1.677 2.438-3.793 2.438-5.978 0-5.43-5.427-9.374-11-9.374zM11 27.875c-1.475 0-3.155-0.29-4.282-0.738-0.069-0.028-0.148-0.044-0.231-0.044-0.182 0-0.346 0.078-0.461 0.203l-0 0c-0.733 0.798-1.688 1.383-2.766 1.656l-0.039 0.008c0.361-0.679 0.574-1.484 0.574-2.339 0-0.492-0.070-0.967-0.201-1.416l0.009 0.036c-0.030-0.104-0.083-0.192-0.153-0.264l0 0c-1.418-1.46-2.199-3.316-2.199-5.227 0-4.404 4.465-8.125 9.75-8.125 4.99 0 9.375 3.471 9.375 8.125 0 4.48-4.205 8.125-9.375 8.125zM28.551 16.226c-0.070 0.072-0.123 0.161-0.152 0.26l-0.001 0.004c-0.122 0.414-0.192 0.889-0.192 1.381 0 0.855 0.212 1.66 0.587 2.366l-0.013-0.027c-1.117-0.282-2.072-0.866-2.801-1.66l-0.004-0.004c-0.115-0.125-0.279-0.204-0.462-0.204-0.083 0-0.162 0.016-0.235 0.046l0.004-0.002c-0.976 0.388-2.368 0.657-3.682 0.722-0.183-2.364-1.362-4.585-3.377-6.234h8.152c0.345 0 0.625-0.28 0.625-0.625s-0.28-0.625-0.625-0.625h-10.072c-1.419-0.722-3.012-1.143-4.652-1.232 0.359-4.197 4.415-7.518 9.349-7.518 5.285 0 9.75 3.721 9.75 8.125 0 1.91-0.781 3.766-2.199 5.227z"></path>
<path d="M16 17.875h-7.875c-0.345 0-0.625 0.28-0.625 0.625s0.28 0.625 0.625 0.625v0h7.875c0.006 0 0.013 0 0.020 0 0.345 0 0.625-0.28 0.625-0.625s-0.28-0.625-0.625-0.625c-0.007 0-0.014 0-0.021 0l0.001-0zM16 21.626h-10.374c-0.345 0-0.625 0.28-0.625 0.625s0.28 0.625 0.625 0.625h10.374c0.006 0 0.013 0 0.020 0 0.345 0 0.625-0.28 0.625-0.625s-0.28-0.625-0.625-0.625c-0.007 0-0.014 0-0.021 0l0.001-0zM26.374 7.875h-7.874c-0.337 0.011-0.605 0.287-0.605 0.625s0.269 0.614 0.604 0.625l0.001 0h7.875c0.006 0 0.013 0 0.020 0 0.345 0 0.625-0.28 0.625-0.625s-0.28-0.625-0.625-0.625c-0.007 0-0.014 0-0.021 0l0.001-0z"></path>
</symbol>
<symbol id="icon-stack-1" viewBox="0 0 32 32">
<path d="M21.998 13.334h-12c-0.368-0-0.666-0.299-0.666-0.667v0-12c0-0.368 0.299-0.666 0.666-0.666h12c0.369 0 0.667 0.299 0.667 0.666v12c0 0.369-0.299 0.667-0.667 0.667zM10.665 12h10.666v-10.666h-10.666v10.666z"></path>
<path d="M17.998 5.334h-4c-0.368-0-0.666-0.299-0.666-0.667v0-4c0-0.368 0.299-0.666 0.666-0.666h4c0.369 0 0.667 0.299 0.667 0.666v4c0 0.369-0.299 0.667-0.667 0.667zM14.665 4h2.666v-2.666h-2.666v2.666zM16.002 25.334h-12.667c-0.368-0-0.666-0.299-0.666-0.667v0-12c0-0.368 0.299-0.666 0.666-0.666h12.667c0.368 0 0.666 0.299 0.666 0.666v12c0 0.369-0.299 0.667-0.666 0.667zM4.002 24h11.333v-10.666h-11.333v10.666z"></path>
<path d="M11.335 17.334h-4c-0.368-0-0.666-0.299-0.666-0.667v0-4c0-0.368 0.299-0.666 0.666-0.666h4c0.369 0 0.667 0.299 0.667 0.666v4c0 0.369-0.299 0.667-0.667 0.667zM8.002 16h2.666v-2.666h-2.666v2.666zM28.665 25.334h-12.667c-0.368-0-0.666-0.299-0.666-0.667v0-12c0-0.368 0.299-0.666 0.666-0.666h12.667c0.368 0 0.666 0.299 0.666 0.666v12c0 0.369-0.299 0.667-0.666 0.667zM16.665 24h11.333v-10.666h-11.333v10.666z"></path>
<path d="M24.666 17.334h-4c-0.368-0-0.666-0.299-0.666-0.667v0-4c0-0.368 0.299-0.666 0.666-0.666h4c0.369 0 0.667 0.299 0.667 0.666v4c0 0.369-0.299 0.667-0.667 0.667zM21.334 16h2.666v-2.666h-2.666v2.666zM31.334 32h-5.334c-0.368-0-0.666-0.299-0.666-0.666v-2h-5.334v2c0 0.368-0.299 0.666-0.666 0.666h-6.667c-0.368-0-0.666-0.299-0.666-0.666v-2h-5.334v2c0 0.368-0.298 0.666-0.666 0.666h-5.334c-0.368-0-0.666-0.299-0.666-0.666v-6.667c0-0.368 0.299-0.666 0.666-0.666h30.667c0.368 0 0.666 0.299 0.666 0.666v6.667c0 0.368-0.299 0.666-0.666 0.666zM26.666 30.666h4v-5.333h-29.333v5.333h4v-2c0-0.368 0.298-0.666 0.666-0.666h6.666c0.369 0 0.667 0.299 0.667 0.666v2h5.333v-2c0-0.368 0.299-0.666 0.667-0.666h6.666c0.368 0 0.666 0.299 0.666 0.666v2z"></path>
</symbol>
</defs>
</svg>
