<svg xmlns="http://www.w3.org/2000/svg" width="55" height="55" fill="none"><path fill="#fff" d="M31.324 15.017a3.623 3.623 0 0 0-5.126 0l-5.904 5.904-1.474-1.474a3.614 3.614 0 0 0-5.114 0 3.622 3.622 0 0 0 0 5.116l5.906 5.908c.43.43 1.107.418 1.524-.005l10.204-10.34a3.633 3.633 0 0 0-.016-5.11Zm-1.513 3.6-9.444 9.566-5.142-5.141a1.467 1.467 0 1 1 2.076-2.076l2.234 2.233c.419.42 1.1.42 1.519 0l6.663-6.663a1.475 1.475 0 0 1 2.094 2.081Z"/><path fill="#fff" d="m48.456 40.227-10.522-9.022a17.776 17.776 0 0 0-2.852-21.398c-6.943-6.943-18.18-6.944-25.125 0-6.942 6.943-6.943 18.181 0 25.125 5.815 5.815 14.565 6.715 21.296 2.909l8.665 10.69c2.229 2.75 6.356 2.981 8.874.464a5.984 5.984 0 0 0-.337-8.768Zm-36.98-6.815c-6.103-6.103-6.104-15.982 0-22.086 6.103-6.103 15.983-6.104 22.087 0 6.953 6.954 5.853 18.776-2.64 24.21h-.002c-5.966 3.816-14.095 3.226-19.444-2.124Zm35.796 14.063a3.83 3.83 0 0 1-5.685-.297l-8.52-10.512a17.972 17.972 0 0 0 3.677-3.651l10.313 8.843a3.828 3.828 0 0 1 .215 5.617Z"/></svg>